<svg id="Слой_1" data-name="Слой 1" xmlns="http://www.w3.org/2000/svg" viewBox="0 0 167.99 106.88"><defs><style>.cls-1{fill:#c8dbe3;}.cls-2{fill:#40424e;}.cls-3{fill:#f1f1f8;}.cls-4{fill:#8eadbc;}</style></defs><title>BOOK</title><path class="cls-1" d="M297.12,202.44l-82.49,18.41-82.49-18.41v-81.8c35.16-.56,64.17,4.76,82.49,20.29,18.67-16.26,48.55-20.46,82.49-20.29Z" transform="translate(-130.64 -115.51)"/><path class="cls-2" d="M214.63,222.38l-.33-.07-83.66-18.67V119.16l1.47,0c38.32-.61,65.33,5.88,82.51,19.83,16.66-13.91,42.21-20.06,82.51-19.83h1.49v84.49Zm-81-21.14,81,18.07,81-18.07V122.13h-.42c-39.2,0-63.79,6.17-79.59,19.93l-1,.85-1-.83c-16.33-13.85-42.52-20.39-80-20Z" transform="translate(-130.64 -115.51)"/><path class="cls-3" d="M293.61,201.72c-30,3.1-56.46.7-78.64,16.17-22.7-15.43-48.17-14.73-78.65-16.17V121.54c33.53-.51,61.18,4.31,78.65,18.37,17.79-14.72,46.28-18.52,78.64-18.37Z" transform="translate(-130.64 -115.51)"/><path class="cls-4" d="M215,219.1l-.57-.39c-20.05-13.62-42.54-14.53-68.58-15.58-3.13-.13-6.31-.25-9.55-.41l-1,0V120.56l1,0c36.64-.56,62.38,5.36,78.66,18.09,15.8-12.69,40.13-18.26,78.66-18.09h1v82.09l-.89.09c-6.78.7-13.38,1.12-19.77,1.52-22.24,1.42-41.45,2.64-58.41,14.47Zm-77.65-18.33,8.58.36c26.11,1.06,48.68,2,69.06,15.55,17.29-11.79,37.49-13.07,58.86-14.43,6.09-.39,12.37-.79,18.79-1.43V122.54c-38-.07-61.75,5.52-77,18.14l-.63.52-.63-.51c-15.72-12.65-40.91-18.58-77-18.16Z" transform="translate(-130.64 -115.51)"/><path class="cls-3" d="M289.29,196.72c-28.5,3.1-53.6,5.7-74.66,21.17-21.55-15.43-45.72-19.73-74.67-21.17V116.54c31.84-.51,58.09,4.31,74.67,18.37,16.9-14.72,43.94-18.52,74.66-18.37Z" transform="translate(-130.64 -115.51)"/><path class="cls-4" d="M214.64,219.12l-.59-.42c-22.83-16.34-49.12-19.74-74.13-21l-1,0V115.56l1,0c34.76-.55,59.2,5.36,74.67,18.06,15-12.67,38.12-18.23,74.68-18.06h1v82.08l-1.71.19c-28.29,3.07-52.72,5.72-73.36,20.88ZM141,195.77c24.83,1.29,50.85,4.81,73.66,20.88,20.93-15.08,45.39-17.75,73.67-20.82V117.54c-36,0-58.54,5.52-73,18.12l-.65.57-.66-.56c-14.9-12.63-38.79-18.56-73-18.14Z" transform="translate(-130.64 -115.51)"/><path class="cls-2" d="M205.4,189.57a1.5,1.5,0,0,1-1-.34c-12.2-10.08-33.12-15.7-52.07-14a1.5,1.5,0,1,1-.27-3c16.38-1.47,39.5,2.49,54.25,14.67a1.49,1.49,0,0,1,.2,2.11A1.47,1.47,0,0,1,205.4,189.57Z" transform="translate(-130.64 -115.51)"/><path class="cls-2" d="M205.4,172.5a1.5,1.5,0,0,1-1-.34c-12.2-10.08-33.12-15.7-52.07-14a1.5,1.5,0,0,1-.27-3c16.38-1.47,39.5,2.49,54.25,14.66a1.5,1.5,0,0,1,.2,2.11A1.48,1.48,0,0,1,205.4,172.5Z" transform="translate(-130.64 -115.51)"/><path class="cls-2" d="M205.4,155.43a1.51,1.51,0,0,1-1-.35c-12.2-10.07-33.12-15.69-52.07-14a1.52,1.52,0,0,1-1.63-1.36,1.5,1.5,0,0,1,1.36-1.63c16.38-1.47,39.5,2.48,54.25,14.66a1.49,1.49,0,0,1,.2,2.11A1.48,1.48,0,0,1,205.4,155.43Z" transform="translate(-130.64 -115.51)"/><path class="cls-2" d="M223.43,189.57a1.47,1.47,0,0,1-1.16-.54,1.49,1.49,0,0,1,.2-2.11c14.75-12.18,37.87-16.14,54.25-14.67a1.5,1.5,0,0,1-.27,3c-18.94-1.71-39.87,3.91-52.07,14A1.5,1.5,0,0,1,223.43,189.57Z" transform="translate(-130.64 -115.51)"/><path class="cls-2" d="M223.43,172.5a1.5,1.5,0,0,1-1-2.66c14.75-12.17,37.87-16.13,54.25-14.66a1.5,1.5,0,0,1-.27,3c-18.94-1.71-39.87,3.91-52.07,14A1.5,1.5,0,0,1,223.43,172.5Z" transform="translate(-130.64 -115.51)"/><path class="cls-2" d="M223.43,155.43a1.5,1.5,0,0,1-1-2.66c14.75-12.18,37.87-16.14,54.25-14.66a1.5,1.5,0,0,1-.27,3c-18.94-1.71-39.87,3.91-52.07,14A1.51,1.51,0,0,1,223.43,155.43Z" transform="translate(-130.64 -115.51)"/><line class="cls-3" x1="83.99" y1="19.4" x2="83.99" y2="102.38"/><rect class="cls-4" x="82.99" y="19.4" width="2" height="82.98"/></svg>