<?xml version="1.0" encoding="utf-8"?>
<!-- Generator: Adobe Illustrator 24.0.1, SVG Export Plug-In . SVG Version: 6.00 Build 0)  -->
<svg version="1.1" id="Слой_1" xmlns="http://www.w3.org/2000/svg" xmlns:xlink="http://www.w3.org/1999/xlink" x="0px" y="0px"
	 viewBox="0 0 32 27.1" style="enable-background:new 0 0 32 27.1;" xml:space="preserve">
<style type="text/css">
	.st0{fill:#FFFFFF;}
</style>
<title>favicon</title>
<path class="st0" d="M31.7,14.8l-1.3-0.1c-1.2-3.2-3.4-5.1-6.9-5S18,11.9,17,15.2h-2.1c-1-3.2-2.9-5.3-6.4-5.5s-5.8,1.8-7,5
	l-1.5,0.2c-0.1,0.7-0.1,1.3-0.1,2c0,0.3,0.1,0.6,0.2,1l1.3,0.2c1.1,3.2,3.2,5.1,6.6,5.1c3.7,0,5.9-2.2,6.8-5.6h2
	c0.9,3.4,3,5.5,6.5,5.6s5.8-1.9,6.9-5.1l1.3-0.2c0.1-0.3,0.2-0.7,0.2-1C32,16.2,31.9,15.5,31.7,14.8z M12.2,16.9
	c-0.2,2.2-2.2,3.8-4.4,3.6c-1.9-0.2-3.3-1.6-3.6-3.5c0-0.1,0-0.3,0-0.5c0-2.2,1.8-4,4-4c2.2,0,3.9,1.7,4,3.9
	C12.2,16.6,12.2,16.8,12.2,16.9z M27.7,16.9c-0.3,2-2,3.5-4.1,3.5c-2,0-3.6-1.5-3.9-3.4c0-0.1,0-0.3,0-0.4c-0.1-2.1,1.6-3.9,3.8-4
	c0.1,0,0.2,0,0.2,0c2.2,0,3.9,1.7,4,3.9C27.8,16.6,27.8,16.8,27.7,16.9z"/>
<path class="st0" d="M31.7,1.6c-0.4,2.3-1.6,4.5-3.3,6.2l0.3,0.6l0.6,1.5c-0.2-0.1-0.4-0.3-0.5-0.4c-1.9-1.5-4.5-2.1-6.9-1.6
	c-2.7,0.5-4.9,2.3-5.9,4.8c-1.1-2.4-3.2-4.2-5.8-4.8c-2.4-0.5-4.9,0-6.9,1.3C3.1,9.4,2.9,9.5,2.8,9.6c0,0,0-0.1,0-0.1
	c0.2-0.4,0.3-0.8,0.5-1.1l0.3-0.6c-1.8-1.8-3-4.2-3.2-6.8c0-0.3,0-0.6,0-0.9c0.3,0.3,0.6,0.4,0.8,0.6c2.3,1.8,5.2,2.6,8.1,2.1
	c0.2,0,0.5-0.1,0.7-0.2c0.2-0.1,0.4-0.2,0.6-0.2c3.6-1.3,7.4-1.3,11,0c3.2,1.2,6.8,0.6,9.4-1.6c0.3-0.2,0.5-0.4,0.7-0.6
	C31.8,0.6,31.8,1.1,31.7,1.6z"/>
<path class="st0" d="M13.6,22.4l0.9-0.7l1.5-1.3l2.4,1.9L16,26.2L13.6,22.4z"/>
<path class="st0" d="M25.5,16.4c0.1,1-0.7,1.8-1.6,1.8c-1,0.1-1.8-0.7-1.8-1.6c0-0.1,0-0.2,0-0.3c0.1-1,0.9-1.7,1.9-1.6
	C24.7,14.8,25.4,15.5,25.5,16.4L25.5,16.4z"/>
<path class="st0" d="M8.2,18.2c-1,0-1.7-0.8-1.8-1.7c0,0,0-0.1,0-0.1c0-0.9,0.7-1.7,1.7-1.7c0,0,0,0,0,0c1-0.1,1.8,0.6,1.9,1.6
	c0,0,0,0.1,0,0.1c0,1-0.7,1.8-1.7,1.8C8.3,18.2,8.2,18.2,8.2,18.2z"/>
</svg>
