<svg id="Слой_1" data-name="Слой 1" xmlns="http://www.w3.org/2000/svg" viewBox="0 0 32 27.11"><defs><style>.cls-1{fill:#3c87c7;}.cls-2{fill:#e44d28;}.cls-3{fill:#1fbcee;}</style></defs><title>favicon</title><path class="cls-1" d="M32,18.43a3.79,3.79,0,0,0-.28-1.06l-1.33-.14c-1.2-3.16-3.37-5.1-6.87-5S18,14.46,17,17.73h-2.1c-1-3.22-2.95-5.3-6.38-5.47s-5.76,1.76-7,5l-1.46.22c0,.37-.07.73-.09,1.09a4.58,4.58,0,0,0,.19,1.87l1.32.18c1.08,3.17,3.19,5.15,6.61,5.15,3.71,0,5.86-2.19,6.82-5.63h2c.91,3.36,3,5.48,6.5,5.62s5.79-1.88,6.94-5.14l1.32-.2A4.36,4.36,0,0,0,32,18.43Zm-12.17.19a3.87,3.87,0,0,1,4-3.51,4,4,0,0,1,4,3.43,3.44,3.44,0,0,1,0,.46,4,4,0,0,1-4.09,3.93,3.9,3.9,0,0,1-3.89-3.83C19.78,18.93,19.79,18.77,19.8,18.62Zm-15.58,0a4,4,0,0,1,4-3.52,4,4,0,0,1,4,3.43,3.44,3.44,0,0,1,0,.46,4,4,0,0,1-8,.1A3.59,3.59,0,0,1,4.22,18.63Z" transform="translate(0 -1.62)"/><path class="cls-1" d="M28.8,11.18c.05.11.49.25.54.38v.91c-2.35-1.73-4.7-2.61-7.42-2A8.09,8.09,0,0,0,16,15.29a8.31,8.31,0,0,0-5.8-4.8,9.32,9.32,0,0,0-7.43,1.65v-.91c.07-.17.45-.28.52-.46s0,.05,0,0l.21-.49A3.58,3.58,0,0,1,3.31,10a10.44,10.44,0,0,1-3-7.46h0c.32.25.55.41.77.59A10.17,10.17,0,0,0,9.2,5.23h0a6.48,6.48,0,0,0,1.27-.41,16.07,16.07,0,0,1,9.62-.44c.33.08.65.18,1,.28l.37.13q.45.15.9.27a10.28,10.28,0,0,0,2,.3,10,10,0,0,0,6.47-2.18c.26-.19.49-.41.74-.63a2.12,2.12,0,0,1,.17.69c.2,1.61-.74,4.17-3,6.78-.08.1-.17.19-.26.29Z" transform="translate(0 -1.62)"/><path class="cls-1" d="M13.59,25v-.91c.22-.18.69.36.89.2L16,23a7.75,7.75,0,0,0,2.37,1v.91l-2.35,3.79Z" transform="translate(0 -1.62)"/><path class="cls-1" d="M25.49,19a1.75,1.75,0,1,1-3.49,0V18c.09-.88.79-.73,1.7-.75s1.73-.16,1.79.8Z" transform="translate(0 -1.62)"/><path class="cls-1" d="M8.19,20.75A1.74,1.74,0,0,1,6.44,19V18c.15-.8.84-.69,1.69-.72s1.68,0,1.82.8V19A1.78,1.78,0,0,1,8.19,20.75Z" transform="translate(0 -1.62)"/><path class="cls-2" d="M31.69,16.46l-1.33-.14c-1.2-3.17-3.37-5.1-6.87-5S18,13.55,17,16.82h-2.1c-1-3.22-2.95-5.3-6.38-5.47s-5.76,1.76-7,5l-1.46.21a11.4,11.4,0,0,0-.09,2,3.48,3.48,0,0,0,.19.95l1.32.19c1.08,3.16,3.19,5.14,6.61,5.15,3.71,0,5.86-2.19,6.82-5.63h2c.91,3.36,3,5.48,6.5,5.62s5.79-1.89,6.94-5.14l1.32-.2a4.35,4.35,0,0,0,.23-1A3.77,3.77,0,0,0,31.69,16.46ZM12.17,18.54a4,4,0,0,1-7.95.09,3.4,3.4,0,0,1,0-.45,4,4,0,0,1,4-4,4,4,0,0,1,4,3.9A3.4,3.4,0,0,1,12.17,18.54Zm15.56,0A4,4,0,0,1,23.67,22a3.93,3.93,0,0,1-3.87-3.4c0-.14,0-.29,0-.44a3.88,3.88,0,0,1,4-4,4,4,0,0,1,4,3.89A3.44,3.44,0,0,1,27.73,18.54Z" transform="translate(0 -1.62)"/><path class="cls-3" d="M31.74,3.24a11.69,11.69,0,0,1-3.3,6.16l.26.62.64,1.54c-.18-.14-.36-.26-.54-.38a8.5,8.5,0,0,0-6.88-1.63A8.09,8.09,0,0,0,16,14.38a8.29,8.29,0,0,0-5.8-4.8,9,9,0,0,0-6.91,1.33c-.18.1-.35.21-.52.32a.36.36,0,0,1,0-.09c.15-.37.31-.75.48-1.15l.26-.62A10.92,10.92,0,0,1,.32,2.54c0-.3,0-.61,0-.92.33.25.57.41.79.6A10.21,10.21,0,0,0,9.2,4.32a3,3,0,0,0,.71-.2c.19-.07.37-.15.56-.21a16.21,16.21,0,0,1,11,0,9.63,9.63,0,0,0,9.39-1.6c.26-.19.49-.41.74-.63A3.22,3.22,0,0,1,31.74,3.24Z" transform="translate(0 -1.62)"/><path class="cls-3" d="M13.59,24.07l.89-.72L16,22.1,18.4,24l-2.35,3.78Z" transform="translate(0 -1.62)"/><path class="cls-3" d="M25.49,18.06A1.75,1.75,0,1,1,22,18a1.75,1.75,0,0,1,3.49,0Z" transform="translate(0 -1.62)"/><path class="cls-3" d="M8.19,19.83A1.74,1.74,0,0,1,6.44,18a1.69,1.69,0,0,1,1.69-1.71A1.73,1.73,0,0,1,10,18,1.76,1.76,0,0,1,8.19,19.83Z" transform="translate(0 -1.62)"/></svg>