<svg id="Слой_1" data-name="Слой 1" xmlns="http://www.w3.org/2000/svg" viewBox="0 0 299.88 174.85"><defs><style>.cls-1{fill:#4281c6;}.cls-2{fill:#569efb;}.cls-3{fill:#e1efff;}</style></defs><title>go_on</title><path class="cls-1" d="M812.4,271.19V404.34a15.85,15.85,0,0,1-15.85,15.84H528.36a15.84,15.84,0,0,1-15.84-15.84V271.19a15.85,15.85,0,0,1,15.84-15.85H796.55a15.85,15.85,0,0,1,15.85,15.85Z" transform="translate(-512.52 -245.33)"/><path class="cls-2" d="M812.4,261.18V394.33a15.85,15.85,0,0,1-15.85,15.84H528.36a15.84,15.84,0,0,1-15.84-15.84V261.18a15.85,15.85,0,0,1,15.84-15.85H796.55a15.85,15.85,0,0,1,15.85,15.85Z" transform="translate(-512.52 -245.33)"/><path class="cls-1" d="M618.64,374.13q-18,0-29.38-11.28t-11.34-28.77a38.74,38.74,0,0,1,11.62-28.38q11.63-11.67,29-11.67a48.86,48.86,0,0,1,17,2.6c3.86,1.44,9.75-1.74,13.36,1l0,7-10.73,12.94a37.08,37.08,0,0,0-9.41-6A28.3,28.3,0,0,0,618,309.74a20.52,20.52,0,0,0-15.77,7.13,24.71,24.71,0,0,0-6.47,17.21q0,10.62,6.58,17.59t16.87,7q9.52,0,16-4.64V342.93H618.09V328.22h33.63v33.63A49.72,49.72,0,0,1,618.64,374.13Z" transform="translate(-512.52 -245.33)"/><path class="cls-1" d="M735.21,362.46q-11.79,11.67-29.49,11.67t-29.38-11.61a40.28,40.28,0,0,1,.11-56.82Q688.24,294,705.94,294t29.38,11.61a40.28,40.28,0,0,1-.11,56.82Zm-46.09-11.12a22.07,22.07,0,0,0,16.82,7.08,21.8,21.8,0,0,0,16.71-7,26,26,0,0,0-.11-34.58,22.07,22.07,0,0,0-16.82-7.08,21.8,21.8,0,0,0-16.71,7,26,26,0,0,0,.11,34.58Z" transform="translate(-512.52 -245.33)"/><path class="cls-3" d="M618.64,367.13q-18,0-29.38-11.28t-11.34-28.77a38.74,38.74,0,0,1,11.62-28.38q11.63-11.67,29-11.67a48.86,48.86,0,0,1,17,2.6,45.12,45.12,0,0,1,13.39,8l-10.73,12.94a37.08,37.08,0,0,0-9.41-6A28.3,28.3,0,0,0,618,302.74a20.52,20.52,0,0,0-15.77,7.13,24.75,24.75,0,0,0-6.47,17.21q0,10.62,6.58,17.59t16.87,7q9.52,0,16-4.64V335.93H618.09V321.22h33.63v33.63A49.72,49.72,0,0,1,618.64,367.13Z" transform="translate(-512.52 -245.33)"/><path class="cls-3" d="M735.21,355.46q-11.79,11.67-29.49,11.67t-29.38-11.61a40.28,40.28,0,0,1,.11-56.82Q688.24,287,705.94,287t29.38,11.61a40.28,40.28,0,0,1-.11,56.82Zm-46.09-11.12a22.07,22.07,0,0,0,16.82,7.08,21.8,21.8,0,0,0,16.71-7,26,26,0,0,0-.11-34.58,22.07,22.07,0,0,0-16.82-7.08,21.8,21.8,0,0,0-16.71,7,26,26,0,0,0,.11,34.58Z" transform="translate(-512.52 -245.33)"/></svg>