<svg id="Слой_1" data-name="Слой 1" xmlns="http://www.w3.org/2000/svg" viewBox="0 0 299.88 164.84"><defs><style>.cls-1{fill:#307dc4;}.cls-2{fill:#266baa;}.cls-3{font-size:110.65px;fill:#e1efff;font-family:GothamPro-Bold, Gotham Pro;font-weight:700;}</style></defs><title>go_off</title><path class="cls-1" d="M706.8,342.78V475.93A15.85,15.85,0,0,1,691,491.77H422.76a15.84,15.84,0,0,1-15.84-15.84V342.78a15.85,15.85,0,0,1,15.84-15.85H691a15.85,15.85,0,0,1,15.85,15.85Z" transform="translate(-406.92 -326.93)"/><path class="cls-2" d="M513,455.13q-18,0-29.37-11.29t-11.34-28.77a38.76,38.76,0,0,1,11.61-28.38q11.63-11.67,29-11.67a49,49,0,0,1,17,2.6c3.86,1.44,9.76-1.74,13.36,1l0,7-10.73,12.95a37,37,0,0,0-9.41-6,28.27,28.27,0,0,0-10.84-1.88,20.5,20.5,0,0,0-15.77,7.14,24.73,24.73,0,0,0-6.47,17.2q0,10.64,6.58,17.6a22.22,22.22,0,0,0,16.88,7q9.51,0,16-4.65V423.93H512.49V409.21h33.64v33.64A49.79,49.79,0,0,1,513,455.13Z" transform="translate(-406.92 -326.93)"/><path class="cls-2" d="M629.61,443.45q-11.79,11.69-29.49,11.68t-29.37-11.62a40.26,40.26,0,0,1,.11-56.82Q582.64,375,600.34,375t29.38,11.62a40.27,40.27,0,0,1-.11,56.81Zm-46.08-11.12a22,22,0,0,0,16.81,7.09,21.77,21.77,0,0,0,16.71-7,26,26,0,0,0-.11-34.58,22.05,22.05,0,0,0-16.82-7.08,21.77,21.77,0,0,0-16.7,7,26,26,0,0,0,.11,34.57Z" transform="translate(-406.92 -326.93)"/><text class="cls-3" transform="translate(59.54 119.87)">GO</text></svg>