<svg id="Слой_1" data-name="Слой 1" xmlns="http://www.w3.org/2000/svg" viewBox="0 0 476.78 164.84"><defs><style>.cls-1{fill:#307dc4;}.cls-2{fill:#266baa;}.cls-3{fill:#e1efff;}</style></defs><title>next_off</title><path class="cls-1" d="M849.42,337.93V461.35a20.71,20.71,0,0,1-20.71,20.71H393.35A20.69,20.69,0,0,1,373,464.9a19.78,19.78,0,0,1-.31-3.55V337.93a20.71,20.71,0,0,1,20.71-20.71H828.71A20.71,20.71,0,0,1,849.42,337.93Z" transform="translate(-372.64 -317.22)"/><path class="cls-2" d="M463.21,444.09V366.64h15.71l36.29,47.69V366.64H532v77.45h-14.5L480,394.86v49.23Z" transform="translate(-372.64 -317.22)"/><path class="cls-2" d="M550.62,444.09V366.64H609V381.8H567.55v15.71h36.51v15.16H567.55v16.27h42v15.15Z" transform="translate(-372.64 -317.22)"/><path class="cls-2" d="M618.88,444.09v-7l27-32.39L620,366.64v-7l19.92,7,16.26,25.12,16.38-25.12,19.36-7v7L666,404.48l27,32.61v7H673.1l-17.37-26.55-17.48,26.55Z" transform="translate(-372.64 -317.22)"/><path class="cls-2" d="M723.78,444.09V382.35H700.21V366.64h64.17v15.71H740.82v61.74Z" transform="translate(-372.64 -317.22)"/><path class="cls-3" d="M463.21,437.09V359.64h15.71l36.29,47.69V359.64H532v77.45h-14.5L480,387.86v49.23Z" transform="translate(-372.64 -317.22)"/><path class="cls-3" d="M550.62,437.09V359.64H609V374.8H567.55v15.71h36.51v15.16H567.55v16.27h42v15.15Z" transform="translate(-372.64 -317.22)"/><path class="cls-3" d="M618.89,437.09l27-39.39L620,359.64h19.92l16.26,25.12,16.38-25.12h19.36L666,397.48l27,39.61H673.1l-17.37-26.55-17.48,26.55Z" transform="translate(-372.64 -317.22)"/><path class="cls-3" d="M723.78,437.09V375.35H700.21V359.64h64.17v15.71H740.82v61.74Z" transform="translate(-372.64 -317.22)"/></svg>