<svg id="Слой_1" data-name="Слой 1" xmlns="http://www.w3.org/2000/svg" viewBox="0 0 476.78 174.84"><defs><style>.cls-1{fill:#4281c6;}.cls-2{fill:#569efb;}.cls-3{fill:#e1efff;}</style></defs><title>next_on</title><path class="cls-1" d="M799.42,220.05V343.47a20.71,20.71,0,0,1-20.71,20.71H343.35A20.69,20.69,0,0,1,323,347a19.78,19.78,0,0,1-.31-3.55V220.05a20.71,20.71,0,0,1,20.71-20.71H778.71A20.71,20.71,0,0,1,799.42,220.05Z" transform="translate(-322.64 -189.34)"/><path class="cls-2" d="M799.42,210.05V333.47a20.71,20.71,0,0,1-20.71,20.71H343.35A20.69,20.69,0,0,1,323,337a19.78,19.78,0,0,1-.31-3.55V210.05a20.71,20.71,0,0,1,20.71-20.71H778.71A20.71,20.71,0,0,1,799.42,210.05Z" transform="translate(-322.64 -189.34)"/><path class="cls-1" d="M415.25,316.81V239.35H431L467.25,287V239.35h16.82v77.46H469.58l-37.51-49.24v49.24Z" transform="translate(-322.64 -189.34)"/><path class="cls-1" d="M502.66,316.81V239.35h58.42v15.16H519.59v15.71H556.1v15.16H519.59v16.27h42v15.16Z" transform="translate(-322.64 -189.34)"/><path class="cls-1" d="M570.93,316.81v-7l27-32.39L572,239.35v-7l19.92,7,16.26,25.12,16.38-25.12,19.36-7v7l-25.89,37.84,27,32.62v7H625.14l-17.37-26.56-17.48,26.56Z" transform="translate(-322.64 -189.34)"/><path class="cls-1" d="M675.82,316.81V255.06H652.25V239.35h64.18v15.71H692.86v61.75Z" transform="translate(-322.64 -189.34)"/><path class="cls-3" d="M415.25,309.81V232.35H431L467.25,280V232.35h16.82v77.46H469.58l-37.51-49.24v49.24Z" transform="translate(-322.64 -189.34)"/><path class="cls-3" d="M502.66,309.81V232.35h58.42v15.16H519.59v15.71H556.1v15.16H519.59v16.27h42v15.16Z" transform="translate(-322.64 -189.34)"/><path class="cls-3" d="M570.93,309.81l27-39.39L572,232.35H592l16.26,25.12,16.38-25.12H644l-25.89,37.84,27,39.62H625.14l-17.37-26.56-17.48,26.56Z" transform="translate(-322.64 -189.34)"/><path class="cls-3" d="M675.82,309.81V248.06H652.25V232.35h64.18v15.71H692.86v61.75Z" transform="translate(-322.64 -189.34)"/></svg>