<svg id="Слой_1" data-name="Слой 1" xmlns="http://www.w3.org/2000/svg" viewBox="0 0 167.99 139.49"><defs><style>.cls-1{fill:#c7dae2;}.cls-1,.cls-4{stroke:#41424f;stroke-width:3px;}.cls-1,.cls-4,.cls-5,.cls-6{stroke-miterlimit:10;}.cls-2{fill:#8dabba;}.cls-3,.cls-5{fill:#f1f1f8;}.cls-4,.cls-6{fill:none;}.cls-4{stroke-linecap:round;}.cls-5{stroke:#8dabba;stroke-width:2px;}.cls-6{stroke:#e34e27;stroke-width:10px;}</style></defs><title>no_book</title><path class="cls-1" d="M1043,574.54,960.5,593,878,574.54v-81.8c35.17-.56,64.18,4.76,82.5,20.29,18.67-16.26,48.54-20.46,82.49-20.29Z" transform="translate(-876.5 -471.03)"/><path class="cls-2" d="M1039.48,573.82c-30,3.1-56.46.7-78.65,16.17-22.69-15.43-48.16-14.73-78.64-16.17V493.64c33.53-.51,61.18,4.31,78.64,18.37,17.8-14.72,46.29-18.52,78.65-18.37Z" transform="translate(-876.5 -471.03)"/><path class="cls-3" d="M1035.16,568.82c-28.5,3.1-53.6,5.7-74.66,21.17-21.55-15.43-45.73-19.73-74.67-21.17V488.64c31.83-.51,58.09,4.31,74.67,18.37,16.89-14.72,43.94-18.52,74.66-18.37Z" transform="translate(-876.5 -471.03)"/><path class="cls-4" d="M898.11,545.85c17.71-1.6,39.69,3.2,53.16,14.32" transform="translate(-876.5 -471.03)"/><path class="cls-4" d="M898.11,528.78c17.71-1.6,39.69,3.2,53.16,14.32" transform="translate(-876.5 -471.03)"/><path class="cls-4" d="M898.11,511.7c17.71-1.59,39.69,3.2,53.16,14.33" transform="translate(-876.5 -471.03)"/><path class="cls-4" d="M1022.45,545.85c-17.72-1.6-39.69,3.2-53.16,14.32" transform="translate(-876.5 -471.03)"/><path class="cls-4" d="M1022.45,528.78c-17.72-1.6-39.69,3.2-53.16,14.32" transform="translate(-876.5 -471.03)"/><path class="cls-4" d="M1022.45,511.7c-17.72-1.59-39.69,3.2-53.16,14.33" transform="translate(-876.5 -471.03)"/><line class="cls-5" x1="83.99" y1="35.98" x2="83.99" y2="118.96"/><circle class="cls-6" cx="83.99" cy="69.75" r="64.75"/><line class="cls-6" x1="40.08" y1="117.32" x2="131.54" y2="25.87"/></svg>