<svg id="Слой_1" data-name="Слой 1" xmlns="http://www.w3.org/2000/svg" viewBox="0 0 387.08 562.19"><defs><style>.cls-1{fill:#5a5f70;}.cls-2{fill:#40424e;}.cls-3{fill:#1fbcee;}.cls-4{fill:#c8dbe3;}.cls-5{fill:#1d1f21;}.cls-6{fill:#f1f1f8;}.cls-7{fill:#878b96;}.cls-8{fill:#8eadbc;}.cls-9{fill:#fff;}.cls-10{fill:#c1336b;}.cls-11{fill:#febc2b;}</style></defs><title>RUBII_svg</title><path class="cls-1" d="M201.48,111.57s-1.6-17.22,1.78-31c2.47-11,6.23-19.33,12.34-28.82s11.32-15.49,20.13-27.19c8.48-11.27,11.92-12.2,11.93-5.29s-.65,18.3-4.83,27.51a203.11,203.11,0,0,0-8.68,23.65s6-7.88,12.59-10.13-1.58,6.63-1.69,12.16S203.08,117.37,201.48,111.57Z" transform="translate(-134.3 -13.33)"/><path class="cls-2" d="M202.34,113.65A2.27,2.27,0,0,1,200,112l-.05-.26c-.06-.71-1.58-17.63,1.82-31.55,2.39-10.67,6-19.15,12.54-29.27,4.26-6.6,8.08-11.54,12.92-17.79,2.13-2.75,4.55-5.87,7.27-9.49,7.5-10,10.28-10.75,12.17-10.11,2.2.73,2.45,3.61,2.46,5.72,0,7.83-.85,19.08-5,28.13a174.24,174.24,0,0,0-6.6,17.11,26,26,0,0,1,8.65-5.63c.85-.29,2.85-1,4,.32s.2,3.52-1.24,6.45c-1.07,2.19-2.41,4.91-2.46,6.84-.13,6-36.53,40.28-43.76,41.18Zm43.37-97.3c-.41,0-2.5.73-8.78,9.06-2.74,3.64-5.16,6.77-7.3,9.53-4.79,6.19-8.58,11.08-12.76,17.57-6.31,9.8-9.83,18-12.15,28.34-2.85,11.68-2.08,26-1.82,29.69,2.32-.77,9.48-5.63,21.72-17.09C236,82.76,243.33,74.18,243.55,72.36c0-2.58,1.49-5.5,2.76-8.09.42-.86.95-1.94,1.25-2.71a3.18,3.18,0,0,0-.33.11c-6,2.07-11.84,9.55-11.89,9.63l-4.88,6.35L232.71,70a206.61,206.61,0,0,1,8.76-23.85c3.88-8.56,4.69-19.35,4.69-26.89C246.15,17.18,245.83,16.52,245.71,16.35Z" transform="translate(-134.3 -13.33)"/><path class="cls-3" d="M281.09,500.64s-1.11,9.7-1.11,9.7L297.56,523l26.51,11.93,2.27.76,2.15-6-31.11-16.87-10.54-7.34Z" transform="translate(-134.3 -13.33)"/><path class="cls-2" d="M326.94,536.93l-3.19-1.07L297,523.79l-18.06-13,.61-5.43c.62-5.45.62-5.45,1.2-5.67l.56-.21,6.19,5.23L297.9,512l31.82,17.25ZM298.06,522.1,324.48,534l1.25.42,1.53-4.25-30.45-16.52-10.54-7.34-4.41-3.71c-.22,1.87-.56,4.87-.82,7.27Z" transform="translate(-134.3 -13.33)"/><path class="cls-4" d="M258.42,418.2s-15.3-10.88-18.32,20.19-7.12,74,2.31,83.52,47.32-47.59,47.32-47.59Z" transform="translate(-134.3 -13.33)"/><path class="cls-3" d="M237.72,469.89c0,.19,10.87,10.41,26,11.69,2.09,2.83,5.46,6.9,5.46,6.9s-18.09.81-32.06-9.9A57.86,57.86,0,0,1,237.72,469.89Z" transform="translate(-134.3 -13.33)"/><path class="cls-2" d="M268.13,489.5c-4.15,0-19.33-.69-31.64-10.12l-.38-.29v-.48a58.66,58.66,0,0,1,.63-8.87l1,.12.76-.56c.09.1,10.48,10,25.27,11.29l.45,0,.26.36c2.06,2.77,5.4,6.81,5.43,6.85l1.28,1.55-2,.09C269.11,489.48,268.74,489.5,268.13,489.5Zm-30-11.42c10.73,8,23.94,9.23,29,9.39-1.09-1.35-2.66-3.3-3.87-4.93a45.91,45.91,0,0,1-18.64-6.35,65.19,65.19,0,0,1-6.06-4.25A52.74,52.74,0,0,0,238.08,478.08Z" transform="translate(-134.3 -13.33)"/><path class="cls-2" d="M245.07,524.48a5.07,5.07,0,0,1-3.72-1.52c-9.24-9.32-6.57-45.39-2.74-84.71,1.21-12.49,4.58-20.08,10-22.55s10.47,1.12,10.68,1.27l.28.2,31.91,57.22-.5.76c-3.26,4.91-32.21,48-45.27,49.29C245.49,524.46,245.28,524.48,245.07,524.48Zm7.49-106.62a6.52,6.52,0,0,0-2.73.58c-3,1.38-6.86,6-8.24,20.1-2.83,29.15-7.12,73.21,1.89,82.31a2.18,2.18,0,0,0,1.94.61c9.66-1,33.5-33.68,42.55-47.21l-30.67-55A9.77,9.77,0,0,0,252.56,417.86Z" transform="translate(-134.3 -13.33)"/><path class="cls-5" d="M318,569h12.45s-1.82-9.65-10.56-9S316,569,318,569Z" transform="translate(-134.3 -13.33)"/><path class="cls-6" d="M409.07,497.05c-11.78,13.35-33.79,48.57-70.29,35.93s-58.22-30-73-48.57-18.74-50.69-9.65-74.69a32.07,32.07,0,0,1,2.33-4.9c11.25-19.4,38.85-21.23,38.85-21.23s63.47-11.22,63.9-11,46.66-8.61,63.47,16.62q.6.88,1.14,1.83C441.59,418.54,420.86,483.7,409.07,497.05Z" transform="translate(-134.3 -13.33)"/><path class="cls-4" d="M281.77,501.24s27.78,18.85,63.82,11.31c25.21-7,35.65-14.26,35.65-14.26L371,506.7l-10.46,15,.25,12.12-6,2.58-20.39-4.88-29.89-13.93S281.81,504.2,281.77,501.24Z" transform="translate(-134.3 -13.33)"/><path class="cls-3" d="M360.27,534.59c-.76,0-4.95,1.06-5.08-9.42s10.07-25.6,24-31.68,19.5-.66,19.75-.65S366.5,534.31,360.27,534.59Z" transform="translate(-134.3 -13.33)"/><path class="cls-2" d="M359.6,535.63a4,4,0,0,1-2.76-1.06c-1.72-1.54-2.59-4.61-2.65-9.39-.13-10.5,9.72-26.11,24.58-32.61,8.43-3.68,15.69-3.94,20.44-.73h.69l0,1c0,1.08-15.78,19.84-17.24,21.55-18,21-21.29,21.16-22.37,21.21h-.11C360.06,535.61,359.85,535.63,359.6,535.63Zm31.5-44a29.64,29.64,0,0,0-11.53,2.8c-13.92,6.09-23.5,21.1-23.38,30.76.07,5.14,1.12,7.15,2,7.93a2.25,2.25,0,0,0,1.84.52l.21,0h0c5-.23,32.79-34.56,37.26-40.47A12.63,12.63,0,0,0,391.1,491.6Z" transform="translate(-134.3 -13.33)"/><path class="cls-6" d="M279.48,509.92s-3.39,2.89,0,10.27,16.55,36.5,19.84,47.17c8.18.39,17.85,0,17.85,0L326.55,535S300,527.57,279.48,509.92Z" transform="translate(-134.3 -13.33)"/><path class="cls-2" d="M307.56,569c-2.67,0-5.58,0-8.31-.18l-1.05-.05-.31-1c-3.66-11.86-19.61-46.64-19.77-47-3.82-8.31.21-11.89.39-12l1-.84,1,.84c20,17.22,46.23,24.65,46.49,24.72l1.46.41-10.1,34.9-1.08,0C317.17,568.86,312.85,569,307.56,569Zm-7.13-3.13c6.19.25,13,.08,15.6,0L324.69,536c-5.72-1.8-27.29-9.22-44.88-23.79-.47,1.24-.73,3.58,1,7.4C281,519.9,296.2,553,300.43,565.9Z" transform="translate(-134.3 -13.33)"/><path class="cls-7" d="M306.51,429.37S293.59,429.7,295,445s5.5,24.85,12.49,24.85c6.35-.21,11.27-6.5,11.27-26.6C318.23,428.06,306.51,429.37,306.51,429.37Z" transform="translate(-134.3 -13.33)"/><path class="cls-7" d="M289.73,446.91s3.78-.68,4.12,4.32c.31,4.32-2.05,13.38,4.94,19.65s15.95,2.88,18.83-1.64a20,20,0,0,0,3.15-14.41c-.72-5.65.31-8.74,2.78-9.26s3.6,2.27,2.68,10.19-3.09,20.65-15.33,22.7l.06,3.79s2.34,0,5,0a2,2,0,1,1,.31,3.89c-2.57.2-10.43,0-13.77,0s-3.42-3.92-.23-3.92h3.5l-.2-3.62a18,18,0,0,1-13.1-10.36C288.41,459.05,285.87,447.22,289.73,446.91Z" transform="translate(-134.3 -13.33)"/><path class="cls-4" d="M424.69,389.22c-7,5.09-52.81,24.83-108.24,25.23-35.81.26-51.42-5.52-58-9.63,11.25-19.4,38.85-21.23,38.85-21.23s63.47-11.22,63.9-11S407.88,364,424.69,389.22Z" transform="translate(-134.3 -13.33)"/><path class="cls-2" d="M354.11,537.19a48.09,48.09,0,0,1-15.82-2.79c-37.17-12.59-56.46-25.44-73.71-49.11-14.91-18.77-19.16-51.51-9.84-76.1a34.05,34.05,0,0,1,2.44-5.13c11.31-19.51,37.93-21.81,40-22,52-9.2,61.88-10.81,64.08-10.91v-.09c.15,0,.49-.05,1-.12,17.9-2.36,50-3.23,63.73,17.41.41.61.81,1.25,1.19,1.91,16.59,28.93-5.59,94.9-16.93,107.74-1.44,1.63-3.08,3.65-4.82,5.79C394.79,516.86,378.27,537.19,354.11,537.19Zm7-163.09c-2.68.28-39.3,6.68-63.57,11l-.16,0c-.27,0-26.94,2-37.65,20.48a31,31,0,0,0-2.23,4.68c-9,23.69-4.92,55.17,9.43,73.23,16.87,23.14,35.78,35.71,72.29,48.08a44.67,44.67,0,0,0,14.67,2.58c23,0,38.91-19.63,49.12-32.21,1.76-2.16,3.42-4.2,4.9-5.87h0c12.26-13.88,31.52-78.21,16.58-104.26-.34-.6-.71-1.18-1.08-1.74-12.85-19.29-43.64-18.37-60.84-16.1C361.85,374.05,361.44,374.1,361.15,374.1Z" transform="translate(-134.3 -13.33)"/><path class="cls-5" d="M374.85,564.33c-.26-.1-7.66-1.41-9.54,8h9.81S376.42,564.94,374.85,564.33Z" transform="translate(-134.3 -13.33)"/><path class="cls-6" d="M372,505.69c-.32.3-15.73,16.58-11.7,28.9s12.67,17.8,14.14,25.11a40.36,40.36,0,0,1,.85,11.95L389.89,573l8.78-5.24a215.66,215.66,0,0,1,4.45-28.41c3.22-13.34,7.24-21.06,3.7-37.63S383.9,492.37,372,505.69Z" transform="translate(-134.3 -13.33)"/><path class="cls-4" d="M374.42,503.14s13.65,46.46,13.95,62.19-11.76,6.44-11.76,6.44l-4.41-18.19-7.81-10.21-4.78-12.88,1-8.82S373.26,499.12,374.42,503.14Z" transform="translate(-134.3 -13.33)"/><path class="cls-2" d="M390.24,574.53,373.57,573l.2-1.54a39.08,39.08,0,0,0-.83-11.46c-.62-3.09-2.79-6-5.3-9.35-3.09-4.13-6.58-8.81-8.8-15.6-4.17-12.77,10.7-29,12-30.36h0c9.06-10.12,20.87-15.73,28.73-13.64,3.14.84,7.2,3.31,8.71,10.35,2.94,13.77.82,21.48-1.86,31.24-.61,2.23-1.25,4.54-1.85,7.05a214.3,214.3,0,0,0-4.41,28.18l-.07.77Zm-13.38-4.24,12.68,1.16,7.7-4.6A219.63,219.63,0,0,1,401.66,539c.62-2.56,1.26-4.89,1.88-7.15,2.57-9.36,4.6-16.76,1.81-29.81-1-4.46-3.15-7.18-6.54-8.08-6.7-1.77-17.52,3.58-25.72,12.74l-.08.08c-.35.37-15,16-11.32,27.35,2.07,6.32,5.41,10.79,8.35,14.73,2.73,3.65,5.09,6.8,5.84,10.56A46.92,46.92,0,0,1,376.86,570.29Z" transform="translate(-134.3 -13.33)"/><path class="cls-5" d="M379.17,575.05c.68-8.51,5.86-18.47,12.8-18.47,7.47,0,10.25,7,10.25,7a5.26,5.26,0,0,0,4.7-2.4c1.73-2.7,3.36-4.75,8.92-4.33S426.09,567,427,572.53c-5.83.21-14.91.47-18.12-.63a7,7,0,0,0-5.39.13l0,3A160,160,0,0,1,379.17,575.05Z" transform="translate(-134.3 -13.33)"/><path class="cls-1" d="M292.91,386.81s-3.16,8.52,15.63,10.9c21.8,2.52,58.07-2.51,73.86-10.9,12.53-7.14,9.83-9.94,10.05-13.18S295,374.83,292.91,386.81Z" transform="translate(-134.3 -13.33)"/><path class="cls-2" d="M321.27,399.87a115.51,115.51,0,0,1-12.91-.67c-8.41-1.07-13.81-3.49-16.06-7.2a7,7,0,0,1-.85-5.56c.39-2.18,2.23-8.31,45.37-12.79,22.76-2.36,46.55-3,53.68-2.19,1.25.14,3.57.42,3.44,2.27A9.93,9.93,0,0,0,394,375c.29,3.74-.32,7.08-10.84,13.07C370.17,395,343.12,399.87,321.27,399.87Zm-26.95-12.55a4,4,0,0,0,.59,3.2c1.23,2,4.63,4.54,13.81,5.7,22.28,2.57,57.75-2.64,73-10.73,9.67-5.51,9.48-7.9,9.3-10.21,0-.25,0-.49-.05-.75-8.13-1.55-77.29,1.33-93.9,10.16-2.24,1.19-2.61,2.06-2.67,2.38Zm-1.41-.51h0Z" transform="translate(-134.3 -13.33)"/><path class="cls-4" d="M245.89,72s-54.11,22.81-61.27,88.1-1.79,146.23,3.58,162.78,24.6,41.59,81.84,56.8c27.92,6.8,33.1,15.22,56.79,9.39,14.31-3.13,67.53-10.29,114.49-34s52.19-28.24,58.58-36.67c7.78-13,29.28-78.86,18.53-133.65S499,89.73,421.2,61.52C358.61,41.75,309.39,42.07,245.89,72Z" transform="translate(-134.3 -13.33)"/><path class="cls-6" d="M200.78,150.57a11.49,11.49,0,0,1,14.54-5.07c7.57,3.24,18.35,10.54,41.82,26.05,29.1,19.34,42.89,16.26,69.85,2.64,22.89-13,60.34-32.63,108.52-33.41a16.37,16.37,0,0,1,12.73,5.78c8.1,9.53,17.42,30.41,24.36,82.67,8.87,66.8-27.17,95.63-43.8,105.06s-34.93,11.92-67.91-12.75c-25.83-19.32-54.38-36.77-65.55-43.43a6,6,0,0,0-8,1.75c-10.6,15.46-44.74,64.45-51.74,64.68-8.32.28-46.14-14.82-50.79-41C180.38,278.78,173.66,199.77,200.78,150.57Z" transform="translate(-134.3 -13.33)"/><path class="cls-8" d="M235.37,345.55c-9.28,0-46.88-15.53-51.55-41.79S173,199,199.9,150.09a12.43,12.43,0,0,1,15.82-5.51c7,3,16.71,9.43,36.09,22.25l5.88,3.89c29.06,19.31,42.62,15.83,68.85,2.58,28.52-16.15,63.81-32.79,109-33.52h.29A17.28,17.28,0,0,1,449,145.91c10.8,12.7,18.84,39.91,24.59,83.19,9,68-28,96.81-44.3,106.06-17.71,10-36.22,11.69-69-12.82C334.48,303,305.91,285.58,294.82,279a5,5,0,0,0-6.67,1.46c-16.6,24.21-45.51,64.88-52.53,65.11ZM201.65,151.06C175,199.43,181.16,277.44,185.79,303.41c4.49,25.22,40.6,40.14,49.52,40.14h.25c4.28-.14,24.28-25.36,50.94-64.25a7,7,0,0,1,9.35-2c11.11,6.63,39.75,24.13,65.63,43.49,31.92,23.86,49.8,22.33,66.83,12.68,16-9.05,52.16-37.31,43.3-104.06-5.7-42.88-13.59-69.76-24.13-82.16a15.33,15.33,0,0,0-11.7-5.42h-.25c-44.7.72-79.7,17.23-108,33.28-27,13.65-41,17.22-70.89-2.68l-5.88-3.89c-19.28-12.75-29-19.15-35.78-22.07a10.44,10.44,0,0,0-13.28,4.64Z" transform="translate(-134.3 -13.33)"/><path class="cls-9" d="M359.87,210.73l-24.31,17.71-.87,12-2.43,13.71.7,14.41a67.51,67.51,0,0,0,1.77,7.4c.24.78.51,1.54.79,2.21a9.23,9.23,0,0,0,1,1.9c19.28,18.61,52.51,14.13,63.59,3.45,1.35-1.7,13.71-15.36,13.71-15.36l9.78-40.69-24.79-19.54Z" transform="translate(-134.3 -13.33)"/><path class="cls-2" d="M268,314.86,260.37,325l12.38,14.31,24.44-6.41,15.21-17-18.64-8.64S269.89,312.31,268,314.86Z" transform="translate(-134.3 -13.33)"/><path class="cls-2" d="M370.75,293.78c-13.79,0-26.13-4.59-34.82-13l-.08-.09c-1.24-1.53-3.37-7.75-3.53-9.21a1,1,0,0,1,2-.21,34.44,34.44,0,0,0,3.06,8.11c19.26,18.53,51.68,13.3,62,3.41,1.46-1.81,12-13.46,13.54-15.16l9.57-39.82-24-18.9-38.28,2.76L336.53,229l-.85,11.62-2.43,13.72a1,1,0,1,1-2-.35l2.42-13.67.9-12.39,24.91-18.15.29,0,39.33-2.84,25.61,20.17-10,41.56-.17.19c-.12.14-12.36,13.65-13.67,15.31l-.09.1c-5.88,5.67-17.4,9.42-29.35,9.56Z" transform="translate(-134.3 -13.33)"/><path class="cls-2" d="M312.65,392.55c-8,0-14.17-2.18-22.1-5a201.08,201.08,0,0,0-20.87-6.41c-61.1-16.23-78.17-43.17-82.91-57.79-5.51-17-10.84-97.69-3.64-163.41,3.75-34.17,20.43-56.63,33.77-69.45,14.26-13.7,27.48-19.47,28.38-19.85C306,42,358.72,38.87,421.68,60.1c35.7,12.36,59.17,28.56,73.88,51,14.19,21.63,19.1,47.2,23.26,73.68C528,249.48,509.11,306,501.19,319.21l-.09.13c-6.76,8.91-12.83,13.75-59.11,37.11-40,20.2-84.46,28.42-105.82,32.37-3.84.71-6.87,1.27-9,1.74A60.2,60.2,0,0,1,312.65,392.55Zm31.87-343.2c-32.33,0-63.89,7.94-98,24l-.06,0c-.13.06-13.52,5.8-27.58,19.35a108.89,108.89,0,0,0-32.78,67.53c-7,64.21-1.79,145.8,3.52,162.16,4.55,14,21.1,39.95,80.79,55.81a202.59,202.59,0,0,1,21.13,6.48c12,4.23,19.18,6.77,34.92,2.9,2.24-.49,5.29-1.05,9.15-1.77,21.23-3.92,65.39-12.1,105-32.1,47.52-24,52-28.23,58-36.17,7.81-13.14,26.26-68.61,17.21-132.41-9-57-20.44-96.38-95.15-122.25C393.92,53.91,369,49.35,344.52,49.35Z" transform="translate(-134.3 -13.33)"/><path class="cls-10" d="M302.67,270.29l-33,1.12-.51-15.08c10.42-6.22,21.45-6.45,33-1.12Z" transform="translate(-134.3 -13.33)"/><path class="cls-1" d="M264.58,324.88s7.4,9.16,15.59,5.83,23.51-12.59,29.27-16.69,17.9,6.07,17.9,6.07-9.86,27-33.67,39c-12.89-2.88-31.4-17.59-35.64-32S264.58,324.88,264.58,324.88Z" transform="translate(-134.3 -13.33)"/><path class="cls-2" d="M293.86,360.65l-.52-.12c-13.37-3-32.34-18.07-36.75-33-1.5-5.08-1.39-7.67.37-8.64,2.38-1.31,6.07,2,8.74,5l.05.05c.1.13,6.82,8.25,13.85,5.39,8.19-3.34,23.63-12.72,29-16.52,6.52-4.63,18.4,5,19.73,6.14l.81.68-.36,1c-.41,1.12-10.34,27.69-34.41,39.8Zm-35.31-39a15.2,15.2,0,0,0,.92,5c4,13.6,21.7,27.81,34,30.84,20.11-10.38,30-32,32-36.91-3.56-2.75-11.61-7.88-15.22-5.32-5.58,4-21.06,13.38-29.57,16.85-9,3.65-16.73-5.55-17.3-6.25A20.06,20.06,0,0,0,258.55,321.64Z" transform="translate(-134.3 -13.33)"/><path class="cls-10" d="M204.09,162.89c-38.87-1.27-70.11,38.4-69.79,88.62s32.08,91.93,70.95,93.2S275.36,306.3,275,256.09,243,164.16,204.09,162.89Zm58.73,92.89c.28,43.28-24.14,77.48-57.65,76.39s-58.68-37.08-58.95-80.36,24.44-77.47,57.95-76.38S262.55,212.5,262.82,255.78Z" transform="translate(-134.3 -13.33)"/><path class="cls-9" d="M201.61,213.42,194.67,230l6.94,24.7,11.49,22,13.68,7.89,10,4.49h10.48l4-1.93,3.75-5s.61-1.82.69-2.16.61-17.16,0-17.44-12.87-44.84-12.87-44.84l-24.43-11.87S203.85,208.05,201.61,213.42Z" transform="translate(-134.3 -13.33)"/><path class="cls-2" d="M244.06,290.57c-7.74,0-15.36-3.56-18.64-5.32l-.18-.09.36-.74.35-1.13a3.71,3.71,0,0,1,.41.2c3.72,2,13.29,6.43,21.75,4.69,7.84-1.62,7.08-18.67,6.12-25.1l2-.3c.15,1,3.59,25-7.7,27.36A22.23,22.23,0,0,1,244.06,290.57Z" transform="translate(-134.3 -13.33)"/><path class="cls-11" d="M237.58,222c-1.33-1.37-9.38-9-17.07,4.67-5.23,10.85-.81,30.78,10.68,41.63,13.31,12,23.57,8.28,23.83-5.95S240.78,225.24,237.58,222Z" transform="translate(-134.3 -13.33)"/><path class="cls-2" d="M245.5,276.47c-4.36,0-9.54-2.56-15-7.48-11.35-10.71-16.54-31.11-10.92-42.8,2.94-5.2,6.26-8,9.9-8.51,4.27-.56,7.58,2.31,8.8,3.57,3.06,3.15,18,26.18,17.72,41.06-.12,6.83-2.48,11.58-6.64,13.38A9.68,9.68,0,0,1,245.5,276.47Zm-14.94-56.86a5.37,5.37,0,0,0-.8,0c-3,.38-5.81,2.89-8.38,7.45-4.75,9.87-1.29,29.28,10.5,40.41,6.44,5.83,12.54,8.14,16.71,6.34,3.39-1.47,5.32-5.59,5.43-11.58.25-14.07-14.3-36.7-17.16-39.64h0C236.14,221.89,233.66,219.61,230.56,219.61Z" transform="translate(-134.3 -13.33)"/><path class="cls-5" d="M208.17,214.41s12.94-8.58,28.69,10.91c17,20.94,19.95,46.23,19.95,46.23s1.2-22.78-5.92-44.13S225,189.66,204.42,197.48a44.42,44.42,0,0,0-16.06,12.18s-13.47,4.09-21.13-3.83c1.85,6.2,9.64,12.67,16.51,15.58-2.57,7.79-8.19,18.48-15.45,19.94,7,1.73,13.6-.93,20.07-6.87,4.36,9.64,11.75,44.63,42.52,52.42-10-7.53-25.35-16.11-30-45.16C197.47,219.51,208.17,214.41,208.17,214.41Z" transform="translate(-134.3 -13.33)"/><path class="cls-5" d="M241.14,227.43s-13.92-4.68-12.5,16.58c1.93,17.92,15.33,24.1,19.33,22.82s6.57-4.77,5.93-15.86S241.14,227.43,241.14,227.43Z" transform="translate(-134.3 -13.33)"/><path class="cls-1" d="M353.32,304.18s-17,27.76-46.75,16.3-41.38.17-48,13.79-6.45,12.36-6.45,12.36-12.9-31.17,1.25-57.32,41.91-27.23,46.66-23.65,26.6,27.77,32.87,34S344.9,309.73,353.32,304.18Z" transform="translate(-134.3 -13.33)"/><path class="cls-2" d="M252.32,348.22a2.21,2.21,0,0,1-.63-.13,1.52,1.52,0,0,1-1-.93c-.74-1.79-12.87-32.32,1.33-58.57,9.57-17.67,24.43-23.24,32.44-25,7-1.52,13.76-1.17,16.45.86,3.18,2.4,13.25,13.17,22.13,22.67,4.68,5,8.71,9.32,10.89,11.5,6.46,6.45,11.32,9,18.54,4.28a1.5,1.5,0,0,1,2.1,2c-.18.29-18,28.69-48.57,16.92-29.67-11.44-40.23,1-46.11,13C254.31,346.44,253.37,348.22,252.32,348.22Zm40.42-82.54a36.34,36.34,0,0,0-7.61.86c-7.51,1.64-21.44,6.86-30.44,23.48-11.17,20.64-4.92,44.85-2.23,53.11.91-1.73,2.38-4.64,4.76-9.52,5.94-12.2,17.58-27,49.89-14.53,21,8.09,35.28-4,41.47-11.11-6.94,1.71-12.22-2.7-16.74-7.21-2.21-2.22-6.27-6.55-11-11.57-8.36-8.95-18.77-20.08-21.75-22.33C298.29,266.23,296,265.68,292.74,265.68Z" transform="translate(-134.3 -13.33)"/><path class="cls-5" d="M335.9,280.67c.31.5-9.41-33.22,10.85-56.82s49.57-7.69,55.27-4.34a40.05,40.05,0,0,1,13.57,14.37s.79,43.67-27.53,57.83c23.21-13.38,37.55-26.56,43.48-51.76,0,0,13.15,5.22,19.28-.91-6.33-.8-13.76-3.81-18.38-11.34,5.12-3.72,11.75-8.54,11.95-19-5.62,5.12-10,7.33-14.76,6.63-3.42-4-18.68-21.29-45.39-20.89S340.66,209,332.63,229.9,332.87,277.11,335.9,280.67Z" transform="translate(-134.3 -13.33)"/><path class="cls-11" d="M369.93,217.17a23.77,23.77,0,0,0-14.9,9.77c-3.7,5.26-7.51,13.86-7,26.6,1,24,15.25,30.92,24.28,30.22,11.19-.56,21.24-14,22.37-32.61C395.68,234.86,388.19,213.68,369.93,217.17Z" transform="translate(-134.3 -13.33)"/><path class="cls-2" d="M371,284.81a21.07,21.07,0,0,1-13.8-5.52c-4.31-3.82-9.57-11.38-10.16-25.71-.54-13.27,3.6-22.13,7.17-27.21a24.93,24.93,0,0,1,15.54-10.19h0c6.1-1.16,11.42.2,15.81,4.06,7.87,6.92,10.76,20.55,10.13,31-1.12,18.51-11.15,32.93-23.32,33.55C371.92,284.79,371.46,284.81,371,284.81Zm-.88-66.66a22.92,22.92,0,0,0-14.28,9.37c-3.39,4.83-7.32,13.26-6.8,26,.56,13.63,5.47,20.73,9.48,24.3a19.09,19.09,0,0,0,13.72,5c11.18-.56,20.39-14.18,21.45-31.67.6-9.94-2.09-22.87-9.46-29.35a15.82,15.82,0,0,0-14.11-3.59Z" transform="translate(-134.3 -13.33)"/><path class="cls-5" d="M371.16,227.48s-13.44-1.3-13.43,22.5c1.25,23.67,16.53,21.74,16.53,21.74s11.56-2.17,11.62-23.19C385.42,225.85,371.16,227.48,371.16,227.48Z" transform="translate(-134.3 -13.33)"/><path class="cls-1" d="M392.55,416.91s-3.67-15.84,8.15-26.4,22.53-6.83,29.88,9.85S394.14,430.9,392.55,416.91Z" transform="translate(-134.3 -13.33)"/><path class="cls-2" d="M402.31,424.18a18.14,18.14,0,0,1-5.56-.77c-3.34-1.07-5.3-3.23-5.68-6.24-.31-1.45-3.39-17,8.63-27.78,5.74-5.13,11.34-7.14,16.64-6,6.17,1.34,11.42,6.84,15.61,16.36,1.94,4.4.95,8.95-2.86,13.18C423.21,419.46,411.29,424.18,402.31,424.18Zm11.13-38.1c-3.67,0-7.61,1.86-11.74,5.54-11,9.83-7.72,24.8-7.69,25l0,.16c.21,1.86,1.4,3.1,3.63,3.82,6.95,2.23,22.36-2.05,29.2-9.64,3-3.33,3.78-6.68,2.34-10-3.73-8.47-8.4-13.53-13.51-14.64A10.64,10.64,0,0,0,413.44,386.08Z" transform="translate(-134.3 -13.33)"/><path class="cls-6" d="M435.59,391.05s-39.66,7.14-51.58,27.42,17.61,88.41,33.08,103.7,21.71,11.39,27.58-1.77,18.5-67.25,12.09-110.47C452.32,385.48,435.59,391.05,435.59,391.05Z" transform="translate(-134.3 -13.33)"/><path class="cls-4" d="M406.51,401.76S393,418.62,403.1,449.61s33.24,82.45,33.24,82.45l-11.65-2.25-11-11.5-7.82-12-20-40.47L380.1,435l2.45-13.23,6.14-9.36S397.2,403.66,406.51,401.76Z" transform="translate(-134.3 -13.33)"/><polygon class="cls-4" points="146.46 498.93 143.68 500.84 146.46 507.75 159.04 538.38 164.7 553.01 174.39 554.2 183.65 554.96 188.36 536.86 192.25 521.62 185.56 518.73 157.19 504.81 146.46 498.93"/><path class="cls-2" d="M307.56,569c-2.67,0-5.58,0-8.31-.18l-1.05-.05-.31-1c-3.66-11.86-19.61-46.64-19.77-47-3.82-8.31.21-11.89.39-12l1-.84,1,.84c20,17.22,46.23,24.65,46.49,24.72l1.46.41-10.1,34.9-1.08,0C317.17,568.86,312.85,569,307.56,569Zm-7.13-3.13c6.19.25,13,.08,15.6,0L324.69,536c-5.72-1.8-27.29-9.22-44.88-23.79-.47,1.24-.73,3.58,1,7.4C281,519.9,296.2,553,300.43,565.9Z" transform="translate(-134.3 -13.33)"/><path class="cls-5" d="M300.24,569.43s-4-20.06-17.09-15.87-12.68,15.87-12.68,15.87Z" transform="translate(-134.3 -13.33)"/><path class="cls-5" d="M276.75,559.06c-.19-.28-4-7.86-11.82-4.71s-9.06,12-9.06,12l18.93-.26S278.38,561.42,276.75,559.06Z" transform="translate(-134.3 -13.33)"/><path class="cls-3" d="M390.54,472.91c.18.47,25.38,15.91,45.8,0s22.47-32.39,22.47-32.39l-1.6,20.76S446.1,482.8,427,486.2c-23.93,4.4-34.48-6.16-34.48-6.16Z" transform="translate(-134.3 -13.33)"/><path class="cls-2" d="M415.74,488.29c-16.14,0-23.53-7.18-23.89-7.54l-.19-.19-2.08-7.37,1-.34.64-.64c.21.18,24.49,15.48,44.47-.08s22.08-31.57,22.1-31.73l2,.2-1.62,21-.09.18c-.46.9-11.56,22-30.89,25.44A63.31,63.31,0,0,1,415.74,488.29Zm-22.3-8.79c1.46,1.28,12,9.66,33.41,5.72,17.47-3.11,28.28-22.2,29.38-24.22l.92-11.9c-2.83,6.39-8.59,15.56-20.2,24.6-11.92,9.3-25.32,8.14-34.47,5.54a55.57,55.57,0,0,1-10.27-4.11Z" transform="translate(-134.3 -13.33)"/><path class="cls-2" d="M433.16,533.57c-4.6,0-10-3.27-17.12-10.33-7.93-7.84-19.36-29.09-27.17-50.54-5.5-15.09-13.61-42.3-6.16-55,12-20.34,49.86-27.63,52.53-28.12a16.36,16.36,0,0,1,12.52,1.6c5.3,3.13,8.82,9.35,10.48,18.47,6.47,43.67-6.27,98-12.2,111.35-2.48,5.56-5.75,11.38-11.14,12.4A10.05,10.05,0,0,1,433.16,533.57ZM439.62,392a12.66,12.66,0,0,0-3.56.47l-.2,0c-.39.07-39.13,7.25-50.56,26.7-11.17,19,17.15,86.36,32.85,101.88,7.09,7,12.39,10.06,16.19,9.35,3.17-.6,5.93-3.89,9-10.68,5.83-13.08,18.35-66.61,12-109.63-1.49-8.16-4.52-13.67-9-16.35A13,13,0,0,0,439.62,392Z" transform="translate(-134.3 -13.33)"/><path class="cls-10" d="M393.73,163.11c-47.17-4.9-89.66,32.17-94.92,82.8s28.71,95.63,75.87,100.53,89.66-32.17,94.92-82.8S440.89,168,393.73,163.11Zm64.09,99.31C453.29,306.06,416.66,338,376,333.8s-69.95-43-65.41-86.67,41.16-75.6,81.82-71.38S462.36,218.78,457.82,262.42Z" transform="translate(-134.3 -13.33)"/><path class="cls-1" d="M436.05,120.8S432.29,89.16,448,57.73,474.78,15,477.65,15s2.35,39.53-.28,53.57c-2,11.78-11.22,27.87-13.22,37.38,10-6.12,20.36-14.67,24.72-16.57a.44.44,0,0,1,.58.58,61.08,61.08,0,0,1-6.36,11.86c-3.24,4.68-11.41,14.09-15.45,20.56-3.55,6-5.4,9.34-7.95,13.72a1.58,1.58,0,0,1-2,.63C452,134.11,436.91,125.13,436.05,120.8Z" transform="translate(-134.3 -13.33)"/><path class="cls-2" d="M458.34,138.4a3.08,3.08,0,0,1-1.31-.29c-4.44-2.05-21.36-11.53-22.45-17l0-.11c0-.32-3.63-32.46,12.1-63.92,14.29-28.58,26.41-43.54,31-43.54a1.9,1.9,0,0,1,1.49.74c3.14,3.78,2.08,41.94-.29,54.6-1.13,6.6-4.37,14.31-7.51,21.76-1.82,4.32-3.57,8.47-4.72,12,3.68-2.41,7.32-5,10.61-7.37,4.82-3.46,8.63-6.19,11-7.24a1.91,1.91,0,0,1,2.13.4,1.94,1.94,0,0,1,.43,2.15,62.37,62.37,0,0,1-6.52,12.14c-1.31,1.89-3.45,4.59-5.71,7.45-3.43,4.32-7.31,9.22-9.69,13s-3.79,6.47-5.29,9.1c-.86,1.51-1.7,3-2.64,4.59A3,3,0,0,1,458.34,138.4Zm-20.81-17.84c.74,3.14,13.41,11.43,20.76,14.83,1-1.62,1.87-3.08,2.72-4.59,1.52-2.64,3.08-5.38,5.34-9.17a165,165,0,0,1,9.9-13.33c2.23-2.82,4.34-5.48,5.6-7.32a52.62,52.62,0,0,0,5-8.72c-2.11,1.33-4.83,3.29-7.83,5.43-4.31,3.09-9.19,6.59-14,9.56l-3,1.82.72-3.4c.93-4.45,3.33-10.17,5.88-16.22,3.08-7.29,6.25-14.83,7.32-21.12,2.48-13.19,2.83-46,1.17-51.58C474,18.44,463.78,29.52,449.34,58.4,434.34,88.41,437.36,119,437.53,120.56ZM488.07,89.4h0Z" transform="translate(-134.3 -13.33)"/><path class="cls-6" d="M378.3,75.73c-7.58,3.94-6.78,10.28,2,15.34,10.19,5.6,29.71,3.88,33.23-.41s-1.07-14.06-12.67-17C391.41,71.7,385.88,71.78,378.3,75.73Z" transform="translate(-134.3 -13.33)"/><path class="cls-6" d="M352.9,82.54s10.64,2.12,11.35-4.49S341.79,79,352.9,82.54Z" transform="translate(-134.3 -13.33)"/><path class="cls-6" d="M429.62,89.15s-8.15-6.49-10,.6S435.89,98.61,429.62,89.15Z" transform="translate(-134.3 -13.33)"/><ellipse class="cls-6" cx="229.24" cy="232.26" rx="4.68" ry="3.52" transform="translate(-150.51 433.98) rotate(-86.6)"/><ellipse class="cls-6" cx="362.18" cy="233.36" rx="5.63" ry="4.24" transform="translate(-86.08 515.08) rotate(-76.02)"/><ellipse class="cls-6" cx="235.69" cy="251.42" rx="2.58" ry="1.94" transform="translate(-163.57 458.44) rotate(-86.6)"/><ellipse class="cls-6" cx="360.75" cy="254" rx="2.58" ry="1.94" transform="translate(-48.51 585.71) rotate(-86.6)"/><path class="cls-6" d="M297.27,383c.41.22,16.55,5.87,19.48,3.4s10.09-10.91,8.92-14.08-6.34-3.88-17.49-2.82S290.35,379.19,297.27,383Z" transform="translate(-134.3 -13.33)"/><ellipse class="cls-6" cx="285.9" cy="283.81" rx="10.54" ry="5.02" transform="translate(-250.7 291.38) rotate(-47.76)"/></svg>